HIERARCHY
ROOT hip
{
  OFFSET 0 0 0
  CHANNELS 6 Xposition Yposition Zposition Zrotation Yrotation Xrotation
  JOINT abdomen
  {
    OFFSET 0 20.6881 -0.73152
    CHANNELS 3 Zrotation Xrotation Yrotation
    JOINT chest
    {
      OFFSET 0 11.7043 -0.48768
      CHANNELS 3 Zrotation Xrotation Yrotation
      JOINT neck
      {
        OFFSET 0 22.1894 -2.19456
        CHANNELS 3 Zrotation Xrotation Yrotation
        JOINT head
        {
          OFFSET -0.24384 7.07133 1.2192
          CHANNELS 3 Zrotation Xrotation Yrotation
          JOINT leftEye
          {
            OFFSET 4.14528 8.04674 8.04672
            CHANNELS 3 Zrotation Xrotation Yrotation
            End Site
            {
              OFFSET 1 0 0
            }
          }
          JOINT rightEye
          {
            OFFSET -3.6576 8.04674 8.04672
            CHANNELS 3 Zrotation Xrotation Yrotation
            End Site
            {
              OFFSET 1 0 0
            }
          }
        }
      }
      JOINT rCollar
      {
        OFFSET -2.68224 19.2634 -4.8768
        CHANNELS 3 Zrotation Xrotation Yrotation
        JOINT rShldr
        {
          OFFSET -8.77824 -1.95073 1.46304
          CHANNELS 3 Zrotation Xrotation Yrotation
          JOINT rForeArm
          {
            OFFSET -28.1742 -1.7115 0.48768
            CHANNELS 3 Zrotation Xrotation Yrotation
            JOINT rHand
            {
              OFFSET -22.5879 0.773209 7.07136
              CHANNELS 3 Zrotation Xrotation Yrotation
              JOINT rThumb1
              {
                OFFSET -1.2192 -0.487915 3.41376
                CHANNELS 3 Zrotation Xrotation Yrotation
                JOINT rThumb2
                {
                  OFFSET -3.37035 -0.52449 3.41376
                  CHANNELS 3 Zrotation Xrotation Yrotation
                  End Site
                  {
                    OFFSET -1.78271 -1.18214 1.43049
                  }
                }
              }
              JOINT rIndex1
              {
                OFFSET -7.75947 0.938293 5.60832
                CHANNELS 3 Zrotation Xrotation Yrotation
                JOINT rIndex2
                {
                  OFFSET -2.54057 -0.884171 1.56538
                  CHANNELS 3 Zrotation Xrotation Yrotation
                  End Site
                  {
                    OFFSET -1.62519 -0.234802 1.16502
                  }
                }
              }
              JOINT rMid1
              {
                OFFSET -8.24714 1.18213 3.41376
                CHANNELS 3 Zrotation Xrotation Yrotation
                JOINT rMid2
                {
                  OFFSET -3.10165 -0.590103 1.0647
                  CHANNELS 3 Zrotation Xrotation Yrotation
                  End Site
                  {
                    OFFSET -2.48547 -0.328903 0.83742
                  }
                }
              }
              JOINT rRing1
              {
                OFFSET -8.82822 0.546677 1.51678
                CHANNELS 3 Zrotation Xrotation Yrotation
                JOINT rRing2
                {
                  OFFSET -2.60934 -0.819778 -0.0198488
                  CHANNELS 3 Zrotation Xrotation Yrotation
                  End Site
                  {
                    OFFSET -2.33842 -0.294052 0.168128
                  }
                }
              }
              JOINT rPinky1
              {
                OFFSET -8.27202 -0.0477905 -0.4584
                CHANNELS 3 Zrotation Xrotation Yrotation
                JOINT rPinky2
                {
                  OFFSET -1.82734 -0.647385 -0.700984
                  CHANNELS 3 Zrotation Xrotation Yrotation
                  End Site
                  {
                    OFFSET -1.69225 -0.51767 -0.607171
                  }
                }
              }
            }
          }
        }
      }
      JOINT lCollar
      {
        OFFSET 2.68224 19.2634 -4.8768
        CHANNELS 3 Zrotation Xrotation Yrotation
        JOINT lShldr
        {
          OFFSET 8.77824 -1.95073 1.46304
          CHANNELS 3 Zrotation Xrotation Yrotation
          JOINT lForeArm
          {
            OFFSET 28.1742 -1.7115 0.48768
            CHANNELS 3 Zrotation Xrotation Yrotation
            JOINT lHand
            {
              OFFSET 22.5879 0.773209 7.07136
              CHANNELS 3 Zrotation Xrotation Yrotation
              JOINT lThumb1
              {
                OFFSET 1.2192 -0.487915 3.41376
                CHANNELS 3 Zrotation Xrotation Yrotation
                JOINT lThumb2
                {
                  OFFSET 3.37035 -0.52449 3.41376
                  CHANNELS 3 Zrotation Xrotation Yrotation
                  End Site
                  {
                    OFFSET 1.78271 -1.18214 1.43049
                  }
                }
              }
              JOINT lIndex1
              {
                OFFSET 7.75947 0.938293 5.60832
                CHANNELS 3 Zrotation Xrotation Yrotation
                JOINT lIndex2
                {
                  OFFSET 2.54057 -0.884171 1.56538
                  CHANNELS 3 Zrotation Xrotation Yrotation
                  End Site
                  {
                    OFFSET 1.62519 -0.234802 1.16502
                  }
                }
              }
              JOINT lMid1
              {
                OFFSET 8.24714 1.18213 3.41376
                CHANNELS 3 Zrotation Xrotation Yrotation
                JOINT lMid2
                {
                  OFFSET 3.10165 -0.590103 1.0647
                  CHANNELS 3 Zrotation Xrotation Yrotation
                  End Site
                  {
                    OFFSET 2.48547 -0.328903 0.83742
                  }
                }
              }
              JOINT lRing1
              {
                OFFSET 8.82822 0.546677 1.51678
                CHANNELS 3 Zrotation Xrotation Yrotation
                JOINT lRing2
                {
                  OFFSET 2.60934 -0.819778 -0.0198488
                  CHANNELS 3 Zrotation Xrotation Yrotation
                  End Site
                  {
                    OFFSET 2.33842 -0.294052 0.168128
                  }
                }
              }
              JOINT lPinky1
              {
                OFFSET 8.27202 -0.0477905 -0.4584
                CHANNELS 3 Zrotation Xrotation Yrotation
                JOINT lPinky2
                {
                  OFFSET 1.82734 -0.647385 -0.700984
                  CHANNELS 3 Zrotation Xrotation Yrotation
                  End Site
                  {
                    OFFSET 1.69225 -0.51767 -0.607171
                  }
                }
              }
            }
          }
        }
      }
    }
  }
  JOINT rButtock
  {
    OFFSET -8.77824 4.35084 1.2192
    CHANNELS 3 Zrotation Xrotation Yrotation
    JOINT rThigh
    {
      OFFSET 0 -1.70687 -2.19456
      CHANNELS 3 Zrotation Xrotation Yrotation
      JOINT rShin
      {
        OFFSET 0 -36.8199 0.73152
        CHANNELS 3 Zrotation Xrotation Yrotation
        JOINT rFoot
        {
          OFFSET 0.73152 -45.1104 -5.12064
          CHANNELS 3 Zrotation Xrotation Yrotation
          End Site
          {
            OFFSET -1.1221 -3.69964 12.103
          }
        }
      }
    }
  }
  JOINT lButtock
  {
    OFFSET 8.77824 4.35084 1.2192
    CHANNELS 3 Zrotation Xrotation Yrotation
    JOINT lThigh
    {
      OFFSET 0 -1.70687 -2.19456
      CHANNELS 3 Zrotation Xrotation Yrotation
      JOINT lShin
      {
        OFFSET 0 -36.8199 0.73152
        CHANNELS 3 Zrotation Xrotation Yrotation
        JOINT lFoot
        {
          OFFSET -0.73152 -45.1104 -5.12064
          CHANNELS 3 Zrotation Xrotation Yrotation
          End Site
          {
            OFFSET 1.1221 -3.69964 12.103
          }
        }
      }
    }
  }
}
MOTION
Frames:	6
Frame Time:	0.00833333
66.99 83.8008 77.9969 0.0 0.0 0.0 -2.04814 -0.00112522 -0.0554689 -0.564322 0.0067938 -0.0976941 9.61782e-14 1.59028e-15 -3.72721e-16 2.89399e-13 9.54166e-15 -9.73734e-16 -0.0 0.0 0.0 -0.0 0.0 0.0 4.81075e-14 2.34504e-16 4.96962e-17 1.01358e-12 5.43552e-15 7.95139e-16 1.74251e-11 -5.04456e-12 -2.35361e-13 1.99475e-10 6.13089e-12 -3.18055e-13 4.70524e-10 2.35005e-12 -1.25314e-12 8.12561e-10 4.05521e-12 -2.17232e-12 4.7053e-10 2.34963e-12 -1.25632e-12 7.73091 5.47488 0.417314 4.70524e-10 2.34963e-12 -1.24996e-12 2.90554 0.965183 0.102902 4.70536e-10 2.35033e-12 -1.25155e-12 10.2786 0.731801 0.0259123 4.70519e-10 2.35202e-12 -1.23724e-12 2.22167 -0.733487 -0.20892 4.78093e-14 2.35669e-16 -3.47873e-16 1.01063e-12 4.53478e-15 -7.95139e-16 1.74332e-11 5.37554e-12 -2.09917e-13 1.99456e-10 -4.326e-12 -3.49861e-13 4.70509e-10 2.2795e-12 -1.26268e-12 8.12574e-10 3.94389e-12 -2.18345e-12 4.70504e-10 2.28086e-12 -1.2436e-12 -7.73091 5.47488 -0.417314 4.70508e-10 2.27966e-12 -1.25632e-12 -2.90554 0.965183 -0.102902 4.70504e-10 2.27956e-12 -1.25711e-12 -10.2786 0.731801 -0.0259123 4.70516e-10 2.28086e-12 -1.26586e-12 -2.22167 -0.733487 0.20892 -2.03217e-16 0.0 -3.88251e-19 -1.0489 -1.92716 0.000316775 -0.00908137 -2.07858 -0.0748958 -0.505841 3.9982 0.139396 2.03217e-16 0.0 3.88251e-19 -2.0647 -7.46953 0.204661 -0.00450145 7.96079 -0.117529 0.539408 -0.498697 -0.050825
62.0399 82.8911 70.9655 -138.453 -85.2291 138.715 -0.59998 1.06791 0.920941 -0.366357 -0.0369837 0.157111 -1.1897 2.4897 0.115826 0.479053 -4.48552 0.405513 -0.0 0.0 0.0 -0.0 0.0 0.0 2.91501e-14 -1.68126e-12 2.71823e-14 12.6226 3.30901 -0.357153 -1.56143 -0.504175 2.61603 0.263336 11.433 1.49393 -1.62254e-09 -3.61757e-09 4.95467e-10 -2.7824e-09 -6.24518e-09 9.17006e-10 -1.62253e-09 -3.61757e-09 4.95462e-10 7.73091 5.47488 0.417314 -1.62254e-09 -3.61757e-09 4.95471e-10 2.90554 0.965183 0.102902 -1.62253e-09 -3.61757e-09 4.95469e-10 10.2786 0.731801 0.0259123 -1.62254e-09 -3.61757e-09 4.95481e-10 2.22167 -0.733487 -0.20892 2.89257e-14 -1.68126e-12 2.68402e-14 -12.0928 17.5137 -0.718352 3.08874 -1.23511 -4.99175 -0.133969 8.13445 -1.10205 2.01022e-09 -1.88895e-09 8.54704e-10 3.48985e-09 -3.26797e-09 1.43488e-09 2.01021e-09 -1.88894e-09 8.54724e-10 -7.73091 5.47488 -0.417314 2.01022e-09 -1.88895e-09 8.54708e-10 -2.90554 0.965183 -0.102902 2.01021e-09 -1.88895e-09 8.54712e-10 -10.2786 0.731801 -0.0259123 2.01022e-09 -1.88895e-09 8.54704e-10 -2.22167 -0.733487 0.20892 -2.03217e-16 0.0 -3.88251e-19 -2.92463 -3.14868 1.19387 0.0117542 5.03293 0.0819558 -0.749614 -0.0176503 -3.73508 2.03217e-16 0.0 3.88251e-19 0.989494 -8.04999 1.30127 -0.0171764 13.9886 -0.222977 0.478388 -4.57011 1.09032
62.0392 82.8949 70.9334 -136.846 -85.1328 137.099 0.891818 2.20018 1.9516 -0.154853 -0.085843 0.425725 -2.4604 5.12152 0.238446 1.05957 -9.22435 0.842232 -0.0 0.0 0.0 -0.0 0.0 0.0 9.61076e-15 -3.79837e-12 6.18096e-14 26.0077 6.78847 -0.743412 -3.15762 -1.03179 5.37471 -0.160509 23.5402 3.29154 -4.00944e-09 -7.76737e-09 1.06748e-09 -6.88185e-09 -1.34094e-08 1.97498e-09 -4.00944e-09 -7.76737e-09 1.06747e-09 7.73091 5.47488 0.417314 -4.00944e-09 -7.76737e-09 1.06749e-09 2.90554 0.965183 0.102902 -4.00944e-09 -7.76737e-09 1.06748e-09 10.2786 0.731801 0.0259123 -4.00945e-09 -7.76737e-09 1.06749e-09 2.22167 -0.733487 -0.20892 9.46697e-15 -3.79837e-12 6.1527e-14 -24.2909 36.0858 -1.7491 6.11816 -2.50792 -10.2716 0.0782867 16.726 -2.34377 3.74894e-09 -4.00804e-09 1.80857e-09 6.51287e-09 -6.93398e-09 3.0359e-09 3.74893e-09 -4.00803e-09 1.80859e-09 -7.73091 5.47488 -0.417314 3.74894e-09 -4.00803e-09 1.80857e-09 -2.90554 0.965183 -0.102902 3.74893e-09 -4.00804e-09 1.80858e-09 -10.2786 0.731801 -0.0259123 3.74894e-09 -4.00804e-09 1.80857e-09 -2.22167 -0.733487 0.20892 -2.03217e-16 0.0 -3.88251e-19 -4.85186 -4.43511 2.45388 -0.00927844 12.5508 0.253057 -1.59627 -4.22041 -7.84954 2.03217e-16 0.0 3.88251e-19 4.24546 -8.65968 2.46715 -0.00475596 20.3624 -0.343484 0.590503 -8.86902 2.30863
62.0356 82.8988 70.944 -136.748 -85.1847 136.984 2.18694 3.20235 2.87778 0.0307411 -0.124531 0.666724 -3.59953 7.46898 0.35012 1.6322 -13.4538 1.24704 -0.0 0.0 0.0 -0.0 0.0 0.0 -8.76479e-15 -5.04425e-12 8.14474e-14 37.9933 9.92549 -1.08593 -4.54662 -1.49992 7.8505 -1.3135 34.1954 5.31339 -5.80866e-09 -1.08574e-08 1.48891e-09 -9.97233e-09 -1.87436e-08 2.75536e-09 -5.80866e-09 -1.08574e-08 1.4889e-09 7.73091 5.47488 0.417314 -5.80867e-09 -1.08574e-08 1.48891e-09 2.90554 0.965183 0.102902 -5.80866e-09 -1.08574e-08 1.48891e-09 10.2786 0.731801 0.0259123 -5.80866e-09 -1.08574e-08 1.48892e-09 2.22167 -0.733487 -0.20892 -8.84145e-15 -5.04424e-12 8.12164e-14 -34.2468 52.497 -3.37696 8.62769 -3.59301 -15.0019 0.61427 24.3654 -3.59329 5.08964e-09 -5.6714e-09 2.56664e-09 8.8444e-09 -9.81179e-09 4.30901e-09 5.08963e-09 -5.6714e-09 2.56666e-09 -7.73091 5.47488 -0.417314 5.08964e-09 -5.6714e-09 2.56664e-09 -2.90554 0.965183 -0.102902 5.08963e-09 -5.6714e-09 2.56665e-09 -10.2786 0.731801 -0.0259123 5.08964e-09 -5.6714e-09 2.56664e-09 -2.22167 -0.733487 0.20892 -2.03217e-16 0.0 -3.88251e-19 -6.52285 -5.58284 3.59263 -0.0682877 19.2555 0.417997 -2.86586 -7.88732 -11.5946 2.03217e-16 0.0 3.88251e-19 7.16533 -9.20002 3.50463 0.0317685 26.0438 -0.46335 0.852978 -12.6932 3.44652
62.0317 82.905 70.9438 -137.171 -85.1753 137.38 3.06768 3.88273 3.53889 0.150632 -0.137799 0.838681 -4.38846 9.10565 0.431943 2.04626 -16.4125 1.54319 -0.0 0.0 0.0 -0.0 0.0 0.0 -2.4231e-14 -4.11205e-12 6.36111e-14 46.3899 12.208 -1.30524 -5.51317 -1.83108 9.61683 -2.67916 41.3202 7.09737 -6.13868e-09 -1.1298e-08 1.53386e-09 -1.05404e-08 -1.95026e-08 2.84179e-09 -6.13867e-09 -1.1298e-08 1.53385e-09 7.73091 5.47488 0.417314 -6.13868e-09 -1.1298e-08 1.53387e-09 2.90554 0.965183 0.102902 -6.13867e-09 -1.1298e-08 1.53387e-09 10.2786 0.731801 0.0259123 -6.13867e-09 -1.1298e-08 1.53387e-09 2.22167 -0.733487 -0.20892 -2.42741e-14 -4.11205e-12 6.34123e-14 -40.0229 63.5413 -5.57369 10.2828 -4.315 -18.333 1.21605 29.6602 -4.59051 5.43529e-09 -6.19545e-09 2.83523e-09 9.44718e-09 -1.07191e-08 4.76237e-09 5.43528e-09 -6.19544e-09 2.83525e-09 -7.73091 5.47488 -0.417314 5.43529e-09 -6.19545e-09 2.83523e-09 -2.90554 0.965183 -0.102902 5.43528e-09 -6.19545e-09 2.83524e-09 -10.2786 0.731801 -0.0259123 5.43529e-09 -6.19545e-09 2.83524e-09 -2.22167 -0.733487 0.20892 -2.03217e-16 0.0 -3.88251e-19 -7.65997 -6.39148 4.41857 -0.134774 23.9279 0.544603 -4.04724 -10.3822 -14.2828 2.03217e-16 0.0 3.88251e-19 9.19708 -9.57538 4.21357 0.0737442 29.9949 -0.556706 1.14327 -15.3484 4.31507
62.0305 82.9057 70.9548 -137.919 -85.2006 138.124 3.39247 4.10979 3.82955 0.180064 -0.111582 0.914867 -4.68006 9.75605 0.473756 2.18077 -17.606 1.6743 -0.0 0.0 0.0 -0.0 0.0 0.0 -3.54621e-14 6.42419e-13 -1.91505e-14 49.7045 13.3868 -1.33973 -5.93466 -1.9805 10.396 -3.29604 43.6561 7.8103 -4.14318e-09 -7.57523e-09 1.02614e-09 -7.11549e-09 -1.30716e-08 1.90351e-09 -4.14317e-09 -7.57524e-09 1.02613e-09 7.73091 5.47488 0.417314 -4.14318e-09 -7.57523e-09 1.02615e-09 2.90554 0.965183 0.102902 -4.14318e-09 -7.57523e-09 1.02615e-09 10.2786 0.731801 0.0259123 -4.14318e-09 -7.57523e-09 1.02615e-09 2.22167 -0.733487 -0.20892 -3.55258e-14 6.4242e-13 -1.93501e-14 -41.9004 67.2597 -6.78169 10.9283 -4.59927 -19.6806 1.51509 31.7613 -5.02634 4.24345e-09 -5.01906e-09 2.33062e-09 7.3786e-09 -8.68543e-09 3.92005e-09 4.24345e-09 -5.01906e-09 2.33064e-09 -7.73091 5.47488 -0.417314 4.24346e-09 -5.01906e-09 2.33062e-09 -2.90554 0.965183 -0.102902 4.24345e-09 -5.01906e-09 2.33063e-09 -10.2786 0.731801 -0.0259123 4.24345e-09 -5.01906e-09 2.33062e-09 -2.22167 -0.733487 0.20892 -2.03217e-16 0.0 -3.88251e-19 -8.10032 -6.73547 4.82329 -0.167661 25.759 0.598566 -4.59825 -11.3786 -15.3918 2.03217e-16 0.0 3.88251e-19 9.95419 -9.72172 4.45894 0.0945832 31.5167 -0.596057 1.31302 -16.3791 4.76904
